<svg width="30" height="30" viewBox="0 0 30 30" fill="none" xmlns="http://www.w3.org/2000/svg">
<path fill-rule="evenodd" clip-rule="evenodd" d="M9.5875 2.49902H20.425C24.6625 2.49902 27.5 5.47402 27.5 9.89902V20.1128C27.5 24.5253 24.6625 27.499 20.425 27.499H9.5875C5.35 27.499 2.5 24.5253 2.5 20.1128V9.89902C2.5 5.47402 5.35 2.49902 9.5875 2.49902ZM18.7625 18.749C19.1875 18.3253 19.1875 17.6378 18.7625 17.2128L16.5375 14.9878L18.7625 12.7615C19.1875 12.3378 19.1875 11.6378 18.7625 11.2128C18.3375 10.7865 17.65 10.7865 17.2125 11.2128L15 13.4365L12.775 11.2128C12.3375 10.7865 11.65 10.7865 11.225 11.2128C10.8 11.6378 10.8 12.3378 11.225 12.7615L13.45 14.9878L11.225 17.2003C10.8 17.6378 10.8 18.3253 11.225 18.749C11.4375 18.9615 11.725 19.0753 12 19.0753C12.2875 19.0753 12.5625 18.9615 12.775 18.749L15 16.5378L17.225 18.749C17.4375 18.9753 17.7125 19.0753 17.9875 19.0753C18.275 19.0753 18.55 18.9615 18.7625 18.749Z" fill="#F73B3B"/>
</svg>
