<svg width="198" height="51" viewBox="0 0 198 51" fill="none" xmlns="http://www.w3.org/2000/svg">
<path d="M49.0176 19.1736C56.3176 22.5706 55.7479 32.6728 48.3886 35.9812L35.7562 41.6599C35.2532 41.886 34.7697 42.1532 34.3106 42.4588L26.9245 47.3745C20.9898 51.3242 12.9619 47.995 11.5868 41.0139L6.05713 12.9408C4.94276 7.28336 8.8372 1.84602 14.5573 1.07303L15.8631 0.896559C19.8795 0.353802 23.8008 2.31562 26.3285 5.47423C29.4275 9.34664 34.1463 14.0907 39.5004 15.4996C42.2558 16.2247 45.624 17.5943 49.0176 19.1736Z" fill="#F9E10C"/>
<path d="M49.0176 19.1736C56.3176 22.5706 55.7479 32.6728 48.3886 35.9812L35.7562 41.6599C35.2532 41.886 34.7697 42.1532 34.3106 42.4588L26.9245 47.3745C20.9898 51.3242 12.9619 47.995 11.5868 41.0139L6.05713 12.9408C4.94276 7.28336 8.8372 1.84602 14.5573 1.07303L15.8631 0.896559C19.8795 0.353802 23.8008 2.31562 26.3285 5.47423C29.4275 9.34664 34.1463 14.0907 39.5004 15.4996C42.2558 16.2247 45.624 17.5943 49.0176 19.1736Z" stroke="white"/>
<path d="M50.1811 29.4122C50.3259 32.6157 48.1472 35.303 45.2369 36.6598L37.0004 40.4996L32.8624 42.6903C26.6587 45.9747 19.1058 42.0313 18.2722 35.0727L15.3131 10.3705C14.8634 6.61586 18.3677 3.59418 22.0141 4.59257C22.9853 4.85848 23.8555 5.39195 24.5621 6.10827C27.3788 8.96361 35.3517 16.4868 43.0008 18.4997C48.6204 19.9785 49.9954 25.3064 50.1811 29.4122Z" fill="#E6C622"/>
<path d="M50.1811 29.4122C50.3259 32.6157 48.1472 35.303 45.2369 36.6598L37.0004 40.4996L32.8624 42.6903C26.6587 45.9747 19.1058 42.0313 18.2722 35.0727L15.3131 10.3705C14.8634 6.61586 18.3677 3.59418 22.0141 4.59257C22.9853 4.85848 23.8555 5.39195 24.5621 6.10827C27.3788 8.96361 35.3517 16.4868 43.0008 18.4997C48.6204 19.9785 49.9954 25.3064 50.1811 29.4122Z" stroke="white"/>
<path d="M41.1212 20.6717C47.9148 24.2214 47.6608 34.0326 40.6915 37.2644L14.7963 49.2723C8.57113 52.159 1.4958 47.5199 1.67323 40.6679L2.32571 15.4708C2.50315 8.61886 9.81013 4.31197 15.8784 7.4826L41.1212 20.6717Z" fill="white" stroke="black" stroke-width="1.49609"/>
<path d="M11.6933 35.1664C11.8297 34.2119 11.9465 33.1307 12.0439 31.9229C12.1413 30.6956 12.19 29.4781 12.19 28.2703C12.19 27.2768 12.1511 26.3515 12.0732 25.4944C11.9952 24.6178 11.8686 23.9067 11.6933 23.3613C11.6349 23.3028 11.6056 23.2054 11.6056 23.0691C11.0017 23.0691 10.4466 23.0788 9.94006 23.0983C9.45305 23.0983 9.02449 23.0691 8.65436 23.0106C8.30371 22.9522 8.03099 22.8548 7.83618 22.7184C7.64138 22.5821 7.54398 22.3678 7.54398 22.0756C7.54398 21.8808 7.6219 21.7054 7.77774 21.5496C7.95306 21.3938 8.18683 21.3158 8.47903 21.3158C8.82968 21.3548 9.22903 21.384 9.67708 21.4035C10.1446 21.423 10.6316 21.4327 11.1381 21.4327C12.1511 21.4327 13.1738 21.4132 14.2063 21.3743C15.2387 21.3158 16.0959 21.2379 16.7777 21.1405H16.953C17.1868 21.1405 17.3816 21.2184 17.5374 21.3743C17.6933 21.5106 17.7712 21.6762 17.7712 21.871C17.7712 22.1438 17.6446 22.358 17.3913 22.5139C17.1575 22.6697 16.8361 22.7866 16.427 22.8645C16.0374 22.9425 15.5796 22.9912 15.0537 23.0106C14.5277 23.0301 13.9822 23.0399 13.4173 23.0399C13.6121 23.7022 13.7387 24.5301 13.7972 25.5236C13.8751 26.4976 13.9141 27.5203 13.9141 28.5918C13.9141 29.2736 13.8946 29.9457 13.8556 30.608C13.8361 31.2703 13.7972 31.9034 13.7387 32.5073C13.6998 33.1112 13.6511 33.6664 13.5926 34.1729C13.5342 34.6599 13.4855 35.069 13.4465 35.4002C13.4076 35.6729 13.2907 35.8774 13.0959 36.0138C12.9206 36.1502 12.7355 36.2183 12.5407 36.2183C12.3264 36.2183 12.1219 36.1502 11.9271 36.0138C11.7517 35.8774 11.6641 35.6729 11.6641 35.4002C11.6641 35.3028 11.6738 35.2248 11.6933 35.1664ZM27.0633 29.2638C26.7906 29.595 26.4789 29.7606 26.1283 29.7606C25.7776 29.7606 25.427 29.5171 25.0763 29.0301C24.7257 28.5431 24.3848 27.9976 24.0536 27.3937L22.914 25.2898C22.8556 25.173 22.8263 25.0561 22.8263 24.9392C22.8263 24.6859 22.914 24.4619 23.0893 24.2671C23.2841 24.0723 23.4887 23.9749 23.703 23.9749C23.8978 23.9749 24.112 24.16 24.3458 24.5301C24.5796 24.8808 24.8036 25.2801 25.0179 25.7281C25.2516 26.1567 25.4757 26.5561 25.69 26.9262C25.9042 27.2768 26.099 27.4522 26.2744 27.4522C26.3913 27.4522 26.4984 27.3742 26.5958 27.2184C27.414 26.0496 28.0666 25.1243 28.5536 24.4424C29.0601 23.7411 29.4497 23.2054 29.7224 22.8353C30.0146 22.4457 30.2094 22.1827 30.3068 22.0464C30.4237 21.8905 30.5114 21.7834 30.5698 21.7249C30.6282 21.4912 30.7354 21.3158 30.8912 21.199C31.0665 21.0626 31.2419 20.9944 31.4172 20.9944C31.5925 20.9944 31.7678 21.0626 31.9432 21.199C32.1185 21.3353 32.2256 21.5496 32.2646 21.8418C32.4399 22.8938 32.5568 24.0431 32.6152 25.2898C32.6932 26.5171 32.7321 27.7736 32.7321 29.0593C32.7321 29.7606 32.7029 30.569 32.6445 31.4846C32.6055 32.3807 32.5276 33.2378 32.4107 34.056C32.2938 34.8547 32.1282 35.5365 31.9139 36.1015C31.6997 36.6664 31.4367 36.9489 31.125 36.9489C30.9107 36.9489 30.7159 36.8709 30.5406 36.7151C30.3847 36.5592 30.3068 36.3157 30.3068 35.9846C30.3068 35.8287 30.3165 35.7118 30.336 35.6339C30.5893 34.5235 30.7646 33.3742 30.862 32.1859C30.9789 30.9781 31.0373 29.819 31.0373 28.7086C31.0373 27.8515 31.0178 27.0333 30.9789 26.2541C30.9399 25.4749 30.901 24.7444 30.862 24.0626L28.7873 27.0139C28.4172 27.5009 28.0763 27.9489 27.7646 28.358C27.4724 28.7671 27.2386 29.069 27.0633 29.2638ZM22.4465 22.8353C22.3491 23.595 22.2809 24.5009 22.2419 25.5528C22.203 26.6048 22.1835 27.7151 22.1835 28.884C22.1835 30.0528 22.2127 31.2119 22.2711 32.3612C22.3491 33.4911 22.388 34.4943 22.388 35.3709C22.388 35.7605 22.3004 36.043 22.125 36.2183C21.9692 36.3937 21.7841 36.4813 21.5699 36.4813C21.3945 36.4813 21.2289 36.4034 21.0731 36.2476C20.9367 36.0917 20.8491 35.8482 20.8101 35.517C20.6738 34.4067 20.5764 33.1891 20.5179 31.8645C20.479 30.5398 20.4595 29.2346 20.4595 27.9489C20.4595 26.9749 20.4692 26.0398 20.4887 25.1437C20.5277 24.2476 20.5958 23.4002 20.6932 22.6015C20.7127 22.2509 20.8199 22.0074 21.0147 21.871C21.2289 21.7347 21.4432 21.6665 21.6575 21.6665C21.8718 21.6665 22.0569 21.7639 22.2127 21.9587C22.3686 22.134 22.4465 22.3678 22.4465 22.66V22.8353Z" fill="black"/>
<path d="M68.98 33C68.8333 33 68.7133 32.9533 68.62 32.86C68.5267 32.7667 68.48 32.6467 68.48 32.5V22.14H64.92C64.7733 22.14 64.6533 22.0933 64.56 22C64.4667 21.8933 64.42 21.7733 64.42 21.64V19.5C64.42 19.3533 64.4667 19.2333 64.56 19.14C64.6533 19.0467 64.7733 19 64.92 19H75.68C75.8267 19 75.9467 19.0467 76.04 19.14C76.1333 19.2333 76.18 19.3533 76.18 19.5V21.64C76.18 21.7733 76.1333 21.8933 76.04 22C75.9467 22.0933 75.8267 22.14 75.68 22.14H72.12V32.5C72.12 32.6467 72.0733 32.7667 71.98 32.86C71.8867 32.9533 71.7667 33 71.62 33H68.98ZM82.668 33C81.8146 33 81.0746 32.8667 80.448 32.6C79.8346 32.32 79.3613 31.8933 79.028 31.32C78.6946 30.7333 78.528 29.98 78.528 29.06V25.22H76.968C76.8213 25.22 76.6946 25.1733 76.588 25.08C76.4946 24.9867 76.448 24.8667 76.448 24.72V23.1C76.448 22.9533 76.4946 22.8333 76.588 22.74C76.6946 22.6467 76.8213 22.6 76.968 22.6H78.528V19.3C78.528 19.1533 78.5746 19.0333 78.668 18.94C78.7746 18.8467 78.8946 18.8 79.028 18.8H81.348C81.4946 18.8 81.6146 18.8467 81.708 18.94C81.8013 19.0333 81.848 19.1533 81.848 19.3V22.6H84.348C84.4946 22.6 84.6146 22.6467 84.708 22.74C84.8013 22.8333 84.848 22.9533 84.848 23.1V24.72C84.848 24.8667 84.8013 24.9867 84.708 25.08C84.6146 25.1733 84.4946 25.22 84.348 25.22H81.848V28.78C81.848 29.2333 81.9346 29.5933 82.108 29.86C82.2813 30.1267 82.5746 30.26 82.988 30.26H84.528C84.6746 30.26 84.7946 30.3067 84.888 30.4C84.9813 30.4933 85.028 30.6133 85.028 30.76V32.5C85.028 32.6467 84.9813 32.7667 84.888 32.86C84.7946 32.9533 84.6746 33 84.528 33H82.668ZM91.4839 33.2C89.9106 33.2 88.6572 32.7733 87.7239 31.92C86.7906 31.0667 86.3039 29.8 86.2639 28.12C86.2639 28.0267 86.2639 27.9067 86.2639 27.76C86.2639 27.6133 86.2639 27.5 86.2639 27.42C86.3039 26.3667 86.5372 25.4667 86.9639 24.72C87.4039 23.96 88.0039 23.3867 88.7639 23C89.5372 22.6 90.4372 22.4 91.4639 22.4C92.6372 22.4 93.6039 22.6333 94.3639 23.1C95.1372 23.5667 95.7172 24.2 96.1039 25C96.4906 25.8 96.6839 26.7133 96.6839 27.74V28.22C96.6839 28.3667 96.6306 28.4867 96.5239 28.58C96.4306 28.6733 96.3172 28.72 96.1839 28.72H89.7839C89.7839 28.7333 89.7839 28.7533 89.7839 28.78C89.7839 28.8067 89.7839 28.8333 89.7839 28.86C89.7972 29.2467 89.8639 29.6 89.9839 29.92C90.1039 30.24 90.2906 30.4933 90.5439 30.68C90.7972 30.8667 91.1039 30.96 91.4639 30.96C91.7306 30.96 91.9506 30.92 92.1239 30.84C92.3106 30.7467 92.4639 30.6467 92.5839 30.54C92.7039 30.42 92.7972 30.32 92.8639 30.24C92.9839 30.1067 93.0772 30.0267 93.1439 30C93.2239 29.96 93.3439 29.94 93.5039 29.94H95.9839C96.1172 29.94 96.2239 29.98 96.3039 30.06C96.3972 30.1267 96.4372 30.2267 96.4239 30.36C96.4106 30.5867 96.2972 30.86 96.0839 31.18C95.8706 31.5 95.5572 31.82 95.1439 32.14C94.7439 32.4467 94.2372 32.7 93.6239 32.9C93.0106 33.1 92.2972 33.2 91.4839 33.2ZM89.7839 26.74H93.1639V26.7C93.1639 26.2733 93.0972 25.9 92.9639 25.58C92.8439 25.26 92.6506 25.0133 92.3839 24.84C92.1306 24.6667 91.8239 24.58 91.4639 24.58C91.1039 24.58 90.7972 24.6667 90.5439 24.84C90.3039 25.0133 90.1172 25.26 89.9839 25.58C89.8506 25.9 89.7839 26.2733 89.7839 26.7V26.74ZM101.679 33.2C100.959 33.2 100.312 33.0667 99.7389 32.8C99.1789 32.52 98.7322 32.1467 98.3989 31.68C98.0656 31.2133 97.8989 30.6867 97.8989 30.1C97.8989 29.1533 98.2856 28.4067 99.0589 27.86C99.8322 27.3 100.859 26.92 102.139 26.72L104.639 26.34V26.06C104.639 25.58 104.539 25.2133 104.339 24.96C104.139 24.7067 103.772 24.58 103.239 24.58C102.866 24.58 102.559 24.6533 102.319 24.8C102.092 24.9467 101.912 25.1467 101.779 25.4C101.659 25.5733 101.492 25.66 101.279 25.66H99.0389C98.8922 25.66 98.7789 25.62 98.6989 25.54C98.6189 25.4467 98.5856 25.34 98.5989 25.22C98.5989 24.98 98.6856 24.7067 98.8589 24.4C99.0456 24.08 99.3256 23.7667 99.6989 23.46C100.072 23.1533 100.552 22.9 101.139 22.7C101.726 22.5 102.432 22.4 103.259 22.4C104.126 22.4 104.866 22.5 105.479 22.7C106.092 22.9 106.586 23.18 106.959 23.54C107.346 23.9 107.632 24.3267 107.819 24.82C108.006 25.3 108.099 25.8333 108.099 26.42V32.5C108.099 32.6467 108.046 32.7667 107.939 32.86C107.846 32.9533 107.732 33 107.599 33H105.279C105.132 33 105.012 32.9533 104.919 32.86C104.826 32.7667 104.779 32.6467 104.779 32.5V31.8C104.606 32.0533 104.372 32.2867 104.079 32.5C103.786 32.7133 103.439 32.88 103.039 33C102.652 33.1333 102.199 33.2 101.679 33.2ZM102.619 30.92C103.006 30.92 103.352 30.84 103.659 30.68C103.979 30.5067 104.226 30.2467 104.399 29.9C104.586 29.54 104.679 29.0933 104.679 28.56V28.28L102.979 28.58C102.352 28.6867 101.892 28.8533 101.599 29.08C101.319 29.2933 101.179 29.5467 101.179 29.84C101.179 30.0667 101.246 30.26 101.379 30.42C101.512 30.58 101.686 30.7067 101.899 30.8C102.112 30.88 102.352 30.92 102.619 30.92ZM114.636 33.2C113.769 33.2 113.029 33.1067 112.416 32.92C111.816 32.72 111.322 32.48 110.936 32.2C110.562 31.92 110.282 31.6333 110.096 31.34C109.909 31.0333 109.809 30.7733 109.796 30.56C109.782 30.4133 109.829 30.2933 109.936 30.2C110.042 30.0933 110.156 30.04 110.276 30.04H112.556C112.596 30.04 112.629 30.0467 112.656 30.06C112.682 30.0733 112.722 30.1 112.776 30.14C112.949 30.2333 113.122 30.3533 113.296 30.5C113.469 30.6333 113.669 30.7533 113.896 30.86C114.122 30.9667 114.396 31.02 114.716 31.02C115.089 31.02 115.402 30.9467 115.656 30.8C115.909 30.6533 116.036 30.4333 116.036 30.14C116.036 29.9267 115.976 29.7533 115.856 29.62C115.736 29.4733 115.489 29.3333 115.116 29.2C114.756 29.0667 114.209 28.9333 113.476 28.8C112.782 28.64 112.176 28.4333 111.656 28.18C111.136 27.9133 110.736 27.5733 110.456 27.16C110.176 26.7333 110.036 26.22 110.036 25.62C110.036 25.0867 110.209 24.5733 110.556 24.08C110.902 23.5867 111.409 23.1867 112.076 22.88C112.742 22.56 113.562 22.4 114.536 22.4C115.309 22.4 115.976 22.4933 116.536 22.68C117.109 22.8533 117.589 23.08 117.976 23.36C118.376 23.64 118.676 23.9267 118.876 24.22C119.076 24.5133 119.182 24.78 119.196 25.02C119.209 25.1533 119.169 25.2733 119.076 25.38C118.982 25.4733 118.876 25.52 118.756 25.52H116.676C116.622 25.52 116.569 25.5133 116.516 25.5C116.462 25.4733 116.416 25.4467 116.376 25.42C116.216 25.34 116.056 25.2333 115.896 25.1C115.736 24.9667 115.549 24.8467 115.336 24.74C115.122 24.6333 114.856 24.58 114.536 24.58C114.176 24.58 113.896 24.66 113.696 24.82C113.496 24.98 113.396 25.1867 113.396 25.44C113.396 25.6133 113.449 25.7733 113.556 25.92C113.676 26.0667 113.909 26.2 114.256 26.32C114.616 26.44 115.169 26.5733 115.916 26.72C116.836 26.8667 117.569 27.1067 118.116 27.44C118.662 27.76 119.049 28.14 119.276 28.58C119.502 29.0067 119.616 29.46 119.616 29.94C119.616 30.58 119.422 31.1467 119.036 31.64C118.662 32.1333 118.102 32.52 117.356 32.8C116.609 33.0667 115.702 33.2 114.636 33.2ZM122.94 36.8C122.82 36.8 122.72 36.76 122.64 36.68C122.56 36.6 122.52 36.5 122.52 36.38C122.52 36.3533 122.52 36.3133 122.52 36.26C122.534 36.22 122.554 36.1733 122.58 36.12L124.14 32.36L120.3 23.28C120.26 23.1867 120.24 23.1067 120.24 23.04C120.267 22.92 120.32 22.82 120.4 22.74C120.48 22.6467 120.58 22.6 120.7 22.6H122.98C123.154 22.6 123.28 22.6467 123.36 22.74C123.454 22.82 123.514 22.9133 123.54 23.02L125.84 28.84L128.18 23.02C128.234 22.9133 128.3 22.82 128.38 22.74C128.474 22.6467 128.607 22.6 128.78 22.6H131.02C131.14 22.6 131.24 22.6467 131.32 22.74C131.414 22.82 131.46 22.9133 131.46 23.02C131.46 23.0867 131.44 23.1733 131.4 23.28L125.74 36.38C125.7 36.4867 125.634 36.58 125.54 36.66C125.447 36.7533 125.314 36.8 125.14 36.8H122.94ZM137.404 33C137.271 33 137.151 32.9533 137.044 32.86C136.951 32.7667 136.904 32.6467 136.904 32.5V19.5C136.904 19.3533 136.951 19.2333 137.044 19.14C137.151 19.0467 137.271 19 137.404 19H139.564C139.777 19 139.937 19.06 140.044 19.18C140.164 19.2867 140.237 19.3733 140.264 19.44L143.784 25.76L147.304 19.44C147.344 19.3733 147.411 19.2867 147.504 19.18C147.611 19.06 147.777 19 148.004 19H150.144C150.291 19 150.411 19.0467 150.504 19.14C150.611 19.2333 150.664 19.3533 150.664 19.5V32.5C150.664 32.6467 150.611 32.7667 150.504 32.86C150.411 32.9533 150.291 33 150.144 33H147.764C147.617 33 147.491 32.9533 147.384 32.86C147.291 32.7667 147.244 32.6467 147.244 32.5V25L144.984 29.18C144.931 29.3 144.851 29.4067 144.744 29.5C144.637 29.5933 144.491 29.64 144.304 29.64H143.264C143.077 29.64 142.931 29.5933 142.824 29.5C142.717 29.4067 142.631 29.3 142.564 29.18L140.304 25V32.5C140.304 32.6467 140.257 32.7667 140.164 32.86C140.071 32.9533 139.951 33 139.804 33H137.404ZM156.347 33.2C155.627 33.2 154.98 33.0667 154.407 32.8C153.847 32.52 153.4 32.1467 153.067 31.68C152.734 31.2133 152.567 30.6867 152.567 30.1C152.567 29.1533 152.954 28.4067 153.727 27.86C154.5 27.3 155.527 26.92 156.807 26.72L159.307 26.34V26.06C159.307 25.58 159.207 25.2133 159.007 24.96C158.807 24.7067 158.44 24.58 157.907 24.58C157.534 24.58 157.227 24.6533 156.987 24.8C156.76 24.9467 156.58 25.1467 156.447 25.4C156.327 25.5733 156.16 25.66 155.947 25.66H153.707C153.56 25.66 153.447 25.62 153.367 25.54C153.287 25.4467 153.254 25.34 153.267 25.22C153.267 24.98 153.354 24.7067 153.527 24.4C153.714 24.08 153.994 23.7667 154.367 23.46C154.74 23.1533 155.22 22.9 155.807 22.7C156.394 22.5 157.1 22.4 157.927 22.4C158.794 22.4 159.534 22.5 160.147 22.7C160.76 22.9 161.254 23.18 161.627 23.54C162.014 23.9 162.3 24.3267 162.487 24.82C162.674 25.3 162.767 25.8333 162.767 26.42V32.5C162.767 32.6467 162.714 32.7667 162.607 32.86C162.514 32.9533 162.4 33 162.267 33H159.947C159.8 33 159.68 32.9533 159.587 32.86C159.494 32.7667 159.447 32.6467 159.447 32.5V31.8C159.274 32.0533 159.04 32.2867 158.747 32.5C158.454 32.7133 158.107 32.88 157.707 33C157.32 33.1333 156.867 33.2 156.347 33.2ZM157.287 30.92C157.674 30.92 158.02 30.84 158.327 30.68C158.647 30.5067 158.894 30.2467 159.067 29.9C159.254 29.54 159.347 29.0933 159.347 28.56V28.28L157.647 28.58C157.02 28.6867 156.56 28.8533 156.267 29.08C155.987 29.2933 155.847 29.5467 155.847 29.84C155.847 30.0667 155.914 30.26 156.047 30.42C156.18 30.58 156.354 30.7067 156.567 30.8C156.78 30.88 157.02 30.92 157.287 30.92ZM170.266 33C169.412 33 168.672 32.8667 168.046 32.6C167.432 32.32 166.959 31.8933 166.626 31.32C166.292 30.7333 166.126 29.98 166.126 29.06V25.22H164.566C164.419 25.22 164.292 25.1733 164.186 25.08C164.092 24.9867 164.046 24.8667 164.046 24.72V23.1C164.046 22.9533 164.092 22.8333 164.186 22.74C164.292 22.6467 164.419 22.6 164.566 22.6H166.126V19.3C166.126 19.1533 166.172 19.0333 166.266 18.94C166.372 18.8467 166.492 18.8 166.626 18.8H168.946C169.092 18.8 169.212 18.8467 169.306 18.94C169.399 19.0333 169.446 19.1533 169.446 19.3V22.6H171.946C172.092 22.6 172.212 22.6467 172.306 22.74C172.399 22.8333 172.446 22.9533 172.446 23.1V24.72C172.446 24.8667 172.399 24.9867 172.306 25.08C172.212 25.1733 172.092 25.22 171.946 25.22H169.446V28.78C169.446 29.2333 169.532 29.5933 169.706 29.86C169.879 30.1267 170.172 30.26 170.586 30.26H172.126C172.272 30.26 172.392 30.3067 172.486 30.4C172.579 30.4933 172.626 30.6133 172.626 30.76V32.5C172.626 32.6467 172.579 32.7667 172.486 32.86C172.392 32.9533 172.272 33 172.126 33H170.266ZM179.062 33.2C178.075 33.2 177.202 33.02 176.442 32.66C175.682 32.3 175.075 31.78 174.622 31.1C174.182 30.4067 173.942 29.58 173.902 28.62C173.888 28.4067 173.882 28.14 173.882 27.82C173.882 27.4867 173.888 27.2133 173.902 27C173.942 26.0267 174.182 25.2 174.622 24.52C175.062 23.8267 175.662 23.3 176.422 22.94C177.195 22.58 178.075 22.4 179.062 22.4C179.982 22.4 180.768 22.5333 181.422 22.8C182.075 23.0533 182.608 23.3733 183.022 23.76C183.435 24.1467 183.742 24.5467 183.942 24.96C184.155 25.36 184.268 25.7133 184.282 26.02C184.295 26.1533 184.248 26.2733 184.142 26.38C184.035 26.4733 183.915 26.52 183.782 26.52H181.242C181.095 26.52 180.982 26.4867 180.902 26.42C180.822 26.3533 180.748 26.2533 180.682 26.12C180.522 25.7067 180.315 25.4133 180.062 25.24C179.822 25.0667 179.508 24.98 179.122 24.98C178.588 24.98 178.175 25.1533 177.882 25.5C177.602 25.8467 177.448 26.38 177.422 27.1C177.408 27.6333 177.408 28.1067 177.422 28.52C177.448 29.2533 177.602 29.7867 177.882 30.12C178.175 30.4533 178.588 30.62 179.122 30.62C179.535 30.62 179.862 30.5333 180.102 30.36C180.342 30.1867 180.535 29.8933 180.682 29.48C180.748 29.3467 180.822 29.2467 180.902 29.18C180.982 29.1133 181.095 29.08 181.242 29.08H183.782C183.915 29.08 184.035 29.1333 184.142 29.24C184.248 29.3333 184.295 29.4467 184.282 29.58C184.268 29.8067 184.202 30.0733 184.082 30.38C183.962 30.6733 183.775 30.9867 183.522 31.32C183.268 31.6533 182.935 31.9667 182.522 32.26C182.122 32.54 181.635 32.7667 181.062 32.94C180.488 33.1133 179.822 33.2 179.062 33.2ZM186.578 33C186.432 33 186.312 32.9533 186.218 32.86C186.125 32.7667 186.078 32.6467 186.078 32.5V19.3C186.078 19.1533 186.125 19.0333 186.218 18.94C186.312 18.8467 186.432 18.8 186.578 18.8H189.138C189.285 18.8 189.405 18.8467 189.498 18.94C189.592 19.0333 189.638 19.1533 189.638 19.3V23.76C189.998 23.3467 190.438 23.02 190.958 22.78C191.492 22.5267 192.105 22.4 192.798 22.4C193.572 22.4 194.258 22.5733 194.858 22.92C195.472 23.2667 195.952 23.78 196.298 24.46C196.645 25.1267 196.818 25.9467 196.818 26.92V32.5C196.818 32.6467 196.772 32.7667 196.678 32.86C196.585 32.9533 196.465 33 196.318 33H193.738C193.605 33 193.485 32.9533 193.378 32.86C193.285 32.7667 193.238 32.6467 193.238 32.5V27.04C193.238 26.4133 193.085 25.9333 192.778 25.6C192.485 25.2533 192.045 25.08 191.458 25.08C190.912 25.08 190.472 25.2533 190.138 25.6C189.805 25.9333 189.638 26.4133 189.638 27.04V32.5C189.638 32.6467 189.592 32.7667 189.498 32.86C189.405 32.9533 189.285 33 189.138 33H186.578Z" fill="white"/>
</svg>
