<svg width="20" height="20" viewBox="0 0 20 20" fill="none" xmlns="http://www.w3.org/2000/svg">
<path d="M17.8631 2.15149C17.4463 1.72367 16.8294 1.56428 16.2541 1.73206L2.84032 5.63277C2.23341 5.80139 1.80323 6.28541 1.68735 6.9003C1.56897 7.52609 1.98247 8.32049 2.52269 8.65268L6.71691 11.2305C7.14709 11.4948 7.70231 11.4285 8.05829 11.0695L12.8611 6.23676C13.1029 5.9851 13.503 5.9851 13.7448 6.23676C13.9866 6.48003 13.9866 6.87429 13.7448 7.12595L8.93365 11.9595C8.57684 12.3177 8.51014 12.8755 8.77275 13.3084L11.3355 17.5446C11.6356 18.048 12.1525 18.3332 12.7194 18.3332C12.7861 18.3332 12.8611 18.3332 12.9278 18.3248C13.5781 18.2409 14.0949 17.7963 14.2867 17.1672L18.2633 3.7705C18.4384 3.20007 18.28 2.57931 17.8631 2.15149Z" fill="#2D9EF0"/>
</svg>
